# xmcd
#
# Track frame offsets:
#	150
#	16094
#	31041
#	46363
#	58943
#	69892
#	85484
#	96749
#	116386
#	126726
#	138296
#	158398
#	175694
#	186555
#	206621
#	218925
#	231587
#	248927
#
# Disc length: 3475 seconds
#
# Revision: 0
# Processed by: cddbd v1.5.2PL0 Copyright (c) Steve Scherf et al.
# Submitted via: audiograbber 1.83.01
#
DISCID=060d9112
DTITLE=Various Artist - Legendy ceske country 2
DYEAR=2006
DGENRE=Country
TTITLE0=Michal Tucny - Mam paru
TTITLE1=Frantisek Nedved - I manekynky starnou
TTITLE2=Vera Martinova - Placou tvoje modre oci
TTITLE3=Vycital..Danek..Bobek..Krestan..Greenhorns - To tenkrat v ctyricatom pa
TTITLE3=tom
TTITLE4=W.Matuska a O.Blechova - Kvete mak a slunce pali
TTITLE5=Josef Laufer - Sbohem lasko ja jedu dal
TTITLE6=Petr Spaleny - Motel Nonstop
TTITLE7=K.Zich a P.Bobek - Bowery street
TTITLE8=Linka..Mauder..Vycital..Simek..Greenhorns - Rodeo
TTITLE9=KTO - Loudavej vlak
TTITLE10=Ladislav Vodicka - Teddy Bear
TTITLE11=M.Hoffman a H.Marsalkova - Divka s vlasem medovym
TTITLE12=Taxmeni..V.Vyskocil - Hledany muz
TTITLE13=Fesaci - Cesty domu
TTITLE14=Wabi Ryvola - Vracim se vracim
TTITLE15=Paberky - Pulnocni rychlik
TTITLE16=Pavel Bobek - Lasko me ubyva sil
TTITLE17=Rengers..Nedved..Krestan..Horky..Danek - Tulak
EXTD=
EXTT0=
EXTT1=
EXTT2=
EXTT3=
EXTT4=
EXTT5=
EXTT6=
EXTT7=
EXTT8=
EXTT9=
EXTT10=
EXTT11=
EXTT12=
EXTT13=
EXTT14=
EXTT15=
EXTT16=
EXTT17=
PLAYORDER=
